<svg width="176" height="19" viewBox="0 0 176 19" fill="none" xmlns="http://www.w3.org/2000/svg">
<path d="M21.5175 12.7312C21.4855 12.7282 21.4605 12.7122 21.4195 12.6442C21.3715 12.5782 21.3455 12.5552 21.3205 12.5322C21.2889 12.4971 21.2552 12.4641 21.2195 12.4332L21.1195 12.3332L21.0185 12.2332C20.987 12.1981 20.9532 12.165 20.9175 12.1342L20.8165 12.0342L20.7175 11.9342L20.6165 11.8342L20.5145 11.7352L20.4135 11.6352L20.3135 11.5352L20.2095 11.4372L15.8415 7.04618C15.6425 6.84517 15.4655 6.62218 15.2375 6.36318L13.7975 7.76517L3.90053 17.5522C3.35353 18.0922 2.77953 18.5862 1.97853 18.7612C1.01053 18.9732 0.0405316 18.3962 0.00153158 17.4382C-0.0264684 16.7572 0.333532 16.1562 0.746532 15.6112L10.8655 2.25818C11.9905 0.812175 13.4695 -0.0138249 15.3435 0.000175127C16.4615 0.00917513 17.4945 0.421175 18.2455 1.20818C19.2725 2.28318 20.1895 3.46518 21.1055 4.63718L24.9495 9.69217L29.0725 15.2042C29.4095 15.6592 29.7265 16.1402 29.9685 16.6492C30.1885 17.1102 30.1985 17.6352 29.7985 18.0272C29.3255 18.4912 28.7285 18.8392 28.0565 18.6492C27.5365 18.5012 26.9955 18.2272 26.6065 17.8622L23.8415 15.0142C23.7295 14.8982 23.5965 14.8022 23.4415 14.6462C23.3845 14.5702 23.3595 14.5452 23.3335 14.5202C23.3017 14.4854 23.268 14.4523 23.2325 14.4212C23.1835 14.3672 23.1575 14.3442 23.1315 14.3222L22.9305 14.1232C22.8815 14.0692 22.8555 14.0462 22.8295 14.0242C22.798 13.9888 22.7643 13.9554 22.7285 13.9242C22.6972 13.8889 22.6638 13.8555 22.6285 13.8242L22.4265 13.6242C22.3951 13.5893 22.3618 13.5562 22.3265 13.5252C22.2775 13.4712 22.2515 13.4482 22.2265 13.4252C22.1765 13.3712 22.1515 13.3482 22.1255 13.3262C22.0765 13.2722 22.0505 13.2492 22.0245 13.2262C21.9755 13.1722 21.9495 13.1492 21.9245 13.1262L21.8235 13.0262C21.7919 12.9908 21.7582 12.9574 21.7225 12.9262C21.6735 12.8722 21.6475 12.8492 21.6225 12.8262L21.5175 12.7272V12.7312Z" fill="#229799"/>
<path d="M21.9325 13.1552C21.9485 13.1522 21.9745 13.1752 22.0165 13.2182C22.0025 13.2192 21.9715 13.2002 21.9325 13.1562V13.1552ZM23.3425 14.5492C23.3585 14.5472 23.3845 14.5722 23.4255 14.6192C23.4115 14.6192 23.3815 14.5972 23.3425 14.5492ZM22.0325 13.2552C22.0495 13.2522 22.0755 13.2742 22.1175 13.3172C22.1035 13.3182 22.0725 13.3002 22.0325 13.2552ZM22.1335 13.3542C22.1505 13.3512 22.1765 13.3732 22.2185 13.4162C22.2035 13.4182 22.1735 13.3992 22.1335 13.3542ZM22.2355 13.4532C22.2515 13.4502 22.2775 13.4732 22.3195 13.5162C22.3055 13.5172 22.2755 13.4982 22.2355 13.4532Z" fill="#3A8F91"/>
<path d="M22.3355 13.5532C22.3525 13.5502 22.3775 13.5732 22.4205 13.6162C22.4065 13.6172 22.3755 13.5982 22.3355 13.5542V13.5532Z" fill="#3A8F91"/>
<path d="M22.4355 13.6532C22.4525 13.6502 22.4775 13.6732 22.5205 13.7162C22.5065 13.7172 22.4755 13.6982 22.4355 13.6532Z" fill="#3A8F91"/>
<path d="M22.5365 13.7522C22.5535 13.7492 22.5785 13.7722 22.6205 13.8152C22.6065 13.8162 22.5755 13.7962 22.5365 13.7522Z" fill="#3A8F91"/>
<path d="M22.6375 13.8522C22.6545 13.8492 22.6795 13.8722 22.7215 13.9152C22.7075 13.9162 22.6765 13.8972 22.6375 13.8522Z" fill="#3A8F91"/>
<path d="M22.7385 13.9512C22.7555 13.9482 22.7805 13.9712 22.8225 14.0142C22.8085 14.0152 22.7775 13.9952 22.7385 13.9512Z" fill="#3A8F91"/>
<path d="M22.8385 14.0522C22.8555 14.0482 22.8815 14.0712 22.9235 14.1142C22.9085 14.1162 22.8775 14.0972 22.8385 14.0522Z" fill="#3A8F91"/>
<path d="M22.9395 14.1512C22.9565 14.1482 22.9815 14.1712 23.0235 14.2142C23.0095 14.2152 22.9785 14.1962 22.9395 14.1512Z" fill="#3A8F91"/>
<path d="M23.0405 14.2502C23.0575 14.2472 23.0825 14.2702 23.1245 14.3132C23.1105 14.3142 23.0795 14.2952 23.0405 14.2502Z" fill="#3A8F91"/>
<path d="M23.1405 14.3502C23.1575 14.3472 23.1835 14.3702 23.2255 14.4132C23.2115 14.4142 23.1805 14.3952 23.1405 14.3502Z" fill="#3A8F91"/>
<path d="M23.2415 14.4502C23.2585 14.4472 23.2835 14.4702 23.3265 14.5132C23.3125 14.5142 23.2815 14.4952 23.2415 14.4512V14.4502Z" fill="#3A8F91"/>
<path d="M21.8315 13.0552C21.8475 13.0522 21.8735 13.0752 21.9155 13.1172C21.9015 13.1182 21.8705 13.0992 21.8315 13.0552Z" fill="#3A8F91"/>
<path d="M21.7305 12.9562C21.7475 12.9532 21.7725 12.9762 21.8145 13.0182C21.8005 13.0192 21.7695 13.0002 21.7305 12.9562Z" fill="#3A8F91"/>
<path d="M21.6305 12.8562C21.6475 12.8532 21.6725 12.8762 21.7145 12.9192C21.7005 12.9202 21.6695 12.9002 21.6305 12.8562Z" fill="#3A8F91"/>
<path d="M21.5275 12.7572C21.5435 12.7542 21.5705 12.7762 21.6135 12.8192C21.5995 12.8202 21.5685 12.8012 21.5275 12.7572ZM21.3285 12.5582C21.3455 12.5552 21.3705 12.5792 21.4125 12.6232C21.3985 12.6242 21.3675 12.6042 21.3285 12.5582Z" fill="#3A8F91"/>
<path d="M21.2275 12.4582C21.2445 12.4552 21.2695 12.4772 21.3115 12.5192C21.2975 12.5202 21.2665 12.5022 21.2275 12.4582Z" fill="#3A8F91"/>
<path d="M21.1285 12.3582C21.1445 12.3552 21.1695 12.3782 21.2115 12.4212C21.1975 12.4222 21.1675 12.4032 21.1285 12.3582ZM21.0275 12.2582C21.0435 12.2552 21.0685 12.2782 21.1105 12.3202C21.0965 12.3212 21.0665 12.3022 21.0275 12.2582ZM20.9255 12.1592C20.9415 12.1562 20.9675 12.1782 21.0095 12.2212C20.9955 12.2222 20.9655 12.2042 20.9255 12.1592ZM20.8245 12.0592C20.8405 12.0562 20.8665 12.0782 20.9085 12.1212C20.8945 12.1222 20.8635 12.1042 20.8245 12.0592ZM20.7245 11.9602C20.7415 11.9572 20.7665 11.9802 20.8075 12.0222C20.7935 12.0232 20.7625 12.0052 20.7245 11.9602ZM20.6255 11.8592C20.6405 11.8572 20.6665 11.8802 20.7075 11.9222C20.6945 11.9222 20.6645 11.9032 20.6255 11.8592Z" fill="#3A8F91"/>
<path d="M20.5215 11.7612C20.5385 11.7582 20.5635 11.7802 20.6055 11.8222C20.5915 11.8232 20.5605 11.8052 20.5215 11.7612Z" fill="#3A8F91"/>
<path d="M20.4215 11.6612C20.4385 11.6582 20.4635 11.6812 20.5055 11.7232C20.4915 11.7242 20.4605 11.7052 20.4215 11.6612Z" fill="#3A8F91"/>
<path d="M20.3215 11.5612C20.3375 11.5592 20.3625 11.5822 20.4045 11.6242C20.3905 11.6242 20.3605 11.6052 20.3215 11.5612ZM20.2185 11.4622C20.2335 11.4602 20.2605 11.4822 20.3035 11.5242C20.2905 11.5252 20.2595 11.5062 20.2185 11.4622Z" fill="#3A8F91"/>
<path d="M172.292 2.23951C172.503 1.98665 172.741 1.86022 173.008 1.86022C173.303 1.86022 173.605 1.99367 173.914 2.26058C174.069 2.41511 174.195 2.56964 174.294 2.72417C174.406 2.87869 174.462 3.03322 174.462 3.18775C174.462 3.44061 174.371 3.65835 174.188 3.84098L171.365 7.12819L165.865 13.5973V17.8327C165.865 18.507 165.444 18.8442 164.601 18.8442C163.772 18.8442 163.357 18.507 163.357 17.8327V2.89274C163.357 2.21844 163.772 1.88129 164.601 1.88129C165.444 1.88129 165.865 2.21844 165.865 2.89274V9.78325L172.292 2.23951ZM169.3 12.2487C169.159 12.052 169.089 11.8132 169.089 11.5322C169.089 11.1108 169.265 10.7736 169.616 10.5208H169.595C169.876 10.3241 170.157 10.2258 170.438 10.2258C170.704 10.2258 170.929 10.3803 171.112 10.6893L175.179 16.6316L175.158 16.6105C175.284 16.8072 175.347 17.0179 175.347 17.2427C175.347 17.6079 175.165 17.931 174.799 18.212H174.821C174.666 18.3103 174.518 18.3876 174.378 18.4438C174.238 18.5 174.111 18.5281 173.999 18.5281C173.886 18.5281 173.767 18.4859 173.64 18.4016C173.528 18.3174 173.416 18.212 173.303 18.0856L169.3 12.2487Z" fill="#0C0C0C"/>
<path d="M155.143 11.7851H153.52C153.282 11.7851 153.092 11.6938 152.952 11.5111C152.825 11.3145 152.762 11.0546 152.762 10.7315C152.762 10.015 153.057 9.65682 153.647 9.65682H156.112C156.632 9.65682 156.997 9.50931 157.208 9.2143C157.419 8.9193 157.524 8.5962 157.524 8.245V5.52673C157.524 5.17553 157.419 4.85243 157.208 4.55742C156.997 4.26241 156.632 4.11491 156.112 4.11491H151.666V17.8538C151.666 18.5281 151.252 18.8652 150.423 18.8652C149.594 18.8652 149.18 18.5281 149.18 17.8538V3.25096C149.18 2.74524 149.306 2.40809 149.559 2.23951C149.826 2.07094 150.142 1.98665 150.507 1.98665H156.639C157.004 1.98665 157.384 2.06391 157.777 2.21844C158.17 2.37297 158.55 2.56964 158.915 2.80845H158.894C159.259 3.07536 159.54 3.42656 159.737 3.86205C159.933 4.28349 160.032 4.77516 160.032 5.33708V8.41357C160.032 9.55146 159.652 10.4014 158.894 10.9633C158.739 11.0757 158.571 11.181 158.388 11.2794C158.22 11.3777 158.044 11.476 157.861 11.5744L161.233 17.1373C161.275 17.2076 161.317 17.2989 161.359 17.4113C161.401 17.5237 161.422 17.615 161.422 17.6852C161.422 18.0224 161.184 18.3455 160.706 18.6545V18.6334C160.383 18.8301 160.109 18.9284 159.884 18.9284C159.561 18.9284 159.301 18.7669 159.105 18.4438L159.126 18.4649L155.143 11.7851Z" fill="#0C0C0C"/>
<path d="M140.276 4.05169L135.661 18.212V18.1909C135.577 18.4016 135.457 18.5772 135.303 18.7177C135.162 18.8442 134.987 18.9074 134.776 18.9074C134.664 18.9074 134.551 18.8933 134.439 18.8652C134.341 18.8512 134.235 18.8301 134.123 18.802H134.144C133.343 18.5492 133.048 18.0996 133.259 17.4534L138.063 2.8506C138.133 2.62583 138.253 2.43618 138.421 2.28166C138.604 2.12713 138.815 2.03582 139.054 2.00772C139.292 1.96558 139.524 1.93748 139.749 1.92343C139.974 1.89534 140.149 1.88129 140.276 1.88129C140.402 1.88129 140.578 1.89534 140.803 1.92343C141.027 1.93748 141.259 1.95855 141.498 1.98665C141.695 2.01475 141.884 2.12011 142.067 2.30273C142.264 2.48535 142.411 2.66797 142.509 2.8506C143.296 5.26684 144.09 7.70415 144.891 10.1625C145.705 12.6069 146.506 15.0372 147.293 17.4534C147.489 18.0996 147.194 18.5492 146.408 18.802C146.295 18.8301 146.19 18.8512 146.092 18.8652C146.007 18.8933 145.909 18.9074 145.797 18.9074C145.6 18.9074 145.417 18.8442 145.249 18.7177C145.094 18.5772 144.982 18.4016 144.912 18.1909V18.212L140.276 4.05169ZM141.856 13.6605C141.856 14.11 141.695 14.4963 141.372 14.8194C141.062 15.1285 140.683 15.283 140.234 15.283C139.784 15.283 139.405 15.1285 139.096 14.8194C138.787 14.4963 138.632 14.11 138.632 13.6605C138.632 13.2109 138.787 12.8316 139.096 12.5226C139.405 12.1995 139.784 12.0379 140.234 12.0379C140.683 12.0379 141.062 12.1995 141.372 12.5226C141.695 12.8316 141.856 13.2109 141.856 13.6605Z" fill="#0C0C0C"/>
<path d="M129.542 1.88129C129.992 1.88129 130.484 1.98665 131.017 2.19737C131.509 2.39404 131.755 2.76631 131.755 3.31418V17.8327C131.755 18.507 131.34 18.8442 130.512 18.8442C129.683 18.8442 129.268 18.507 129.268 17.8327V7.00176L128.657 6.93854L127.814 9.67789L125.286 18.1066C125.131 18.5983 124.752 18.8371 124.148 18.8231C123.881 18.809 123.649 18.7388 123.453 18.6124C123.256 18.4859 123.122 18.3033 123.052 18.0645L121.535 13.1547C121.226 12.1854 120.917 11.2021 120.608 10.2047C120.299 9.19323 119.962 8.07642 119.596 6.85426L118.985 6.93854V17.8327C118.985 18.507 118.571 18.8442 117.742 18.8442C116.913 18.8442 116.499 18.507 116.499 17.8327V3.31418C116.499 2.78036 116.745 2.40809 117.236 2.19737C117.756 1.98665 118.255 1.88831 118.732 1.90236C118.943 1.90236 119.161 1.93046 119.386 1.98665C119.61 2.04284 119.821 2.12713 120.018 2.23951C120.214 2.33785 120.39 2.4713 120.545 2.63988C120.699 2.79441 120.819 2.97703 120.903 3.18775L124.211 14.4612C124.45 13.6324 124.703 12.7333 124.97 11.764C125.237 10.7947 125.511 9.81134 125.792 8.81394C126.072 7.81654 126.346 6.83318 126.613 5.86388C126.894 4.88052 127.154 3.96741 127.393 3.12453C127.477 2.92786 127.597 2.75226 127.751 2.59773C127.906 2.44321 128.081 2.31678 128.278 2.21844C128.475 2.10606 128.678 2.02177 128.889 1.96558C129.114 1.90939 129.332 1.88129 129.542 1.88129Z" fill="#0C0C0C"/>
<path d="M108.39 11.7851H106.767C106.528 11.7851 106.339 11.6938 106.198 11.5111C106.072 11.3145 106.009 11.0546 106.009 10.7315C106.009 10.015 106.304 9.65682 106.894 9.65682H109.359C109.879 9.65682 110.244 9.50931 110.455 9.2143C110.666 8.9193 110.771 8.5962 110.771 8.245V5.52673C110.771 5.17553 110.666 4.85243 110.455 4.55742C110.244 4.26241 109.879 4.11491 109.359 4.11491H104.913V17.8538C104.913 18.5281 104.498 18.8652 103.67 18.8652C102.841 18.8652 102.426 18.5281 102.426 17.8538V3.25096C102.426 2.74524 102.553 2.40809 102.806 2.23951C103.073 2.07094 103.389 1.98665 103.754 1.98665H109.886C110.251 1.98665 110.63 2.06391 111.024 2.21844C111.417 2.37297 111.796 2.56964 112.162 2.80845H112.141C112.506 3.07536 112.787 3.42656 112.983 3.86205C113.18 4.28349 113.278 4.77516 113.278 5.33708V8.41357C113.278 9.55146 112.899 10.4014 112.141 10.9633C111.986 11.0757 111.817 11.181 111.635 11.2794C111.466 11.3777 111.291 11.476 111.108 11.5744L114.48 17.1373C114.522 17.2076 114.564 17.2989 114.606 17.4113C114.648 17.5237 114.669 17.615 114.669 17.6852C114.669 18.0224 114.43 18.3455 113.953 18.6545V18.6334C113.63 18.8301 113.356 18.9284 113.131 18.9284C112.808 18.9284 112.548 18.7669 112.351 18.4438L112.372 18.4649L108.39 11.7851Z" fill="#0C0C0C"/>
<path d="M91.634 18.7388C91.1142 18.7388 90.763 18.6053 90.5804 18.3384C90.3978 18.0715 90.3065 17.7765 90.3065 17.4534V3.25096C90.3065 2.92786 90.3978 2.63988 90.5804 2.38702C90.763 2.12011 91.1142 1.98665 91.634 1.98665H98.967C99.4868 1.98665 99.7607 2.33785 99.7888 3.04024C99.8169 3.75669 99.543 4.11491 98.967 4.11491H92.7929V16.6105H99.3463C99.8661 16.6105 100.133 16.9547 100.147 17.6431C100.175 18.3736 99.9082 18.7388 99.3463 18.7388H91.634ZM98.1873 10.015C98.1873 10.5067 98.0118 10.9211 97.6606 11.2583C97.3234 11.5954 96.909 11.764 96.4173 11.764C95.9397 11.764 95.5323 11.5954 95.1951 11.2583C94.858 10.9211 94.6894 10.5067 94.6894 10.015C94.6894 9.52336 94.858 9.10895 95.1951 8.7718C95.5323 8.43465 95.9397 8.26607 96.4173 8.26607C96.909 8.26607 97.3234 8.43465 97.6606 8.7718C98.0118 9.10895 98.1873 9.52336 98.1873 10.015Z" fill="#0C0C0C"/>
<path d="M84.6913 2.89274C84.6913 2.21844 85.1057 1.88129 85.9345 1.88129C86.7774 1.88129 87.1989 2.21844 87.1989 2.89274V17.8327C87.1989 18.507 86.7774 18.8442 85.9345 18.8442C85.1057 18.8442 84.6913 18.507 84.6913 17.8327V2.89274ZM78.2854 17.8327C78.2854 18.507 77.864 18.8442 77.0211 18.8442C76.1923 18.8442 75.7779 18.507 75.7779 17.8327V2.89274C75.7779 2.21844 76.1923 1.88129 77.0211 1.88129C77.864 1.88129 78.2854 2.21844 78.2854 2.89274V17.8327ZM83.2163 10.015C83.2163 10.5067 83.0477 10.9211 82.7105 11.2583C82.3734 11.5954 81.959 11.764 81.4673 11.764C80.9897 11.764 80.5823 11.5954 80.2451 11.2583C79.908 10.9211 79.7394 10.5067 79.7394 10.015C79.7394 9.52336 79.908 9.10895 80.2451 8.7718C80.5823 8.43465 80.9897 8.26607 81.4673 8.26607C81.959 8.26607 82.3734 8.43465 82.7105 8.7718C83.0477 9.10895 83.2163 9.52336 83.2163 10.015Z" fill="#0C0C0C"/>
<path d="M69.4483 17.8749C69.4483 18.5492 69.0268 18.8863 68.184 18.8863C67.3551 18.8863 66.9407 18.5492 66.9407 17.8749V4.11491H63.2531C62.7474 4.11491 62.4805 3.75669 62.4524 3.04024C62.4524 2.33785 62.7193 1.98665 63.2531 1.98665H73.1358C73.6697 1.98665 73.9225 2.33785 73.8944 3.04024C73.8944 3.75669 73.6416 4.11491 73.1358 4.11491H69.4483V17.8749Z" fill="#0C0C0C"/>
<path d="M53.0296 18.7388C52.5099 18.7388 52.1587 18.6053 51.976 18.3384C51.7934 18.0715 51.7021 17.7765 51.7021 17.4534V3.25096C51.7021 2.92786 51.7934 2.63988 51.976 2.38702C52.1587 2.12011 52.5099 1.98665 53.0296 1.98665H60.3627C60.8824 1.98665 61.1564 2.33785 61.1845 3.04024C61.2126 3.75669 60.9386 4.11491 60.3627 4.11491H54.1886V16.6105H60.742C61.2617 16.6105 61.5286 16.9547 61.5427 17.6431C61.5708 18.3736 61.3039 18.7388 60.742 18.7388H53.0296ZM59.583 10.015C59.583 10.5067 59.4074 10.9211 59.0562 11.2583C58.7191 11.5954 58.3046 11.764 57.813 11.764C57.3353 11.764 56.9279 11.5954 56.5908 11.2583C56.2536 10.9211 56.0851 10.5067 56.0851 10.015C56.0851 9.52336 56.2536 9.10895 56.5908 8.7718C56.9279 8.43465 57.3353 8.26607 57.813 8.26607C58.3046 8.26607 58.7191 8.43465 59.0562 8.7718C59.4074 9.10895 59.583 9.52336 59.583 10.015Z" fill="#0C0C0C"/>
<path d="M41.8922 3.94634L37.2774 18.1066V18.0856C37.1931 18.2963 37.0737 18.4719 36.9192 18.6124C36.7787 18.7388 36.6031 18.802 36.3924 18.802C36.28 18.802 36.1676 18.788 36.0553 18.7599C35.9569 18.7458 35.8516 18.7248 35.7392 18.6967H35.7603C34.9595 18.4438 34.6645 17.9943 34.8752 17.3481L39.6796 2.74524C39.7499 2.52047 39.8693 2.33082 40.0378 2.1763C40.2205 2.02177 40.4312 1.93046 40.67 1.90236C40.9088 1.86022 41.1406 1.83212 41.3654 1.81808C41.5901 1.78998 41.7657 1.77593 41.8922 1.77593C42.0186 1.77593 42.1942 1.78998 42.419 1.81808C42.6437 1.83212 42.8755 1.8532 43.1143 1.88129C43.311 1.90939 43.5007 2.01475 43.6833 2.19737C43.88 2.37999 44.0275 2.56262 44.1258 2.74524C44.9125 5.16148 45.7062 7.5988 46.5069 10.0572C47.3217 12.5015 48.1224 14.9318 48.9091 17.3481C49.1058 17.9943 48.8108 18.4438 48.0241 18.6967C47.9117 18.7248 47.8063 18.7458 47.708 18.7599C47.6237 18.788 47.5254 18.802 47.413 18.802C47.2163 18.802 47.0337 18.7388 46.8651 18.6124C46.7106 18.4719 46.5982 18.2963 46.528 18.0856V18.1066L41.8922 3.94634ZM43.4726 13.5551C43.4726 14.0046 43.311 14.391 42.9879 14.7141C42.6789 15.0231 42.2996 15.1776 41.85 15.1776C41.4005 15.1776 41.0212 15.0231 40.7121 14.7141C40.4031 14.391 40.2486 14.0046 40.2486 13.5551C40.2486 13.1056 40.4031 12.7263 40.7121 12.4172C41.0212 12.0941 41.4005 11.9326 41.85 11.9326C42.2996 11.9326 42.6789 12.0941 42.9879 12.4172C43.311 12.7263 43.4726 13.1056 43.4726 13.5551Z" fill="#0C0C0C"/>
</svg>
